<?xml version="1.0" encoding="UTF-8" standalone="no"?>
<svg
   xmlns:dc="http://purl.org/dc/elements/1.1/"
   xmlns:cc="http://creativecommons.org/ns#"
   xmlns:rdf="http://www.w3.org/1999/02/22-rdf-syntax-ns#"
   xmlns:svg="http://www.w3.org/2000/svg"
   xmlns="http://www.w3.org/2000/svg"
   xmlns:xlink="http://www.w3.org/1999/xlink"
   xmlns:sodipodi="http://sodipodi.sourceforge.net/DTD/sodipodi-0.dtd"
   xmlns:inkscape="http://www.inkscape.org/namespaces/inkscape"
   width="210mm"
   height="297mm"
   viewBox="0 0 210 297"
   version="1.1"
   id="svg85172"
   inkscape:version="1.0.1 (3bc2e813f5, 2020-09-07)"
   sodipodi:docname="slogan.svg">
  <defs
     id="defs85166">
    <clipPath
       id="clipPath20"
       clipPathUnits="userSpaceOnUse">
      <path
         id="path18"
         d="m 10000,0 h -372.94 v 2363.79 l -4.45,2.22 c 2.97,26.86 4.45,53.75 4.45,80.64 v 0 c 0,312.64 -200.43,625.3 -601.22,885.61 v 779.78 c 0.01,0.16 0.01,0.33 0.01,0.49 v 346.57 h -0.01 c 0.01,6.29 -4.78,12.57 -14.37,17.37 -9.58,4.79 -22.14,7.18 -34.7,7.18 -12.56,0 -25.12,-2.39 -34.7,-7.18 -9.69,-4.85 -14.48,-11.22 -14.38,-17.57 v -52.07 c -0.33,-0.17 -0.67,-0.34 -1,-0.5 v 2.88 c 0,0.21 0,0.41 0,0.61 v 98.33 h -98.15 v -150.91 c -0.33,-0.16 -0.67,-0.33 -1,-0.5 v 3.19 98.63 98.65 h -98.15 v -196.98 c -0.01,-0.2 -0.01,-0.4 0,-0.6 v -51.97 c -0.34,-0.17 -0.67,-0.34 -1.01,-0.51 v 2.93 c 0,0.17 0,0.34 0,0.51 v 98.38 98.65 98.63 h -98.16 v -296.73 c -0.33,0.16 -0.66,0.33 -0.99,0.49 v 49.38 0 0 98.64 98.64 h -98.16 v -197.08 c 0,-0.13 0,-0.27 0,-0.4 v -0.09 c -0.33,0.17 -0.67,0.34 -1,0.5 v 48.64 c 0,0.13 0,0.27 0,0.4 v 98.44 h -98.16 v -98.39 c -0.33,0.17 -0.66,0.34 -0.99,0.5 v 48.3 h -0.01 c 0,6.28 -4.79,12.56 -14.37,17.35 -9.58,4.8 -22.14,7.2 -34.7,7.2 -12.56,0 -25.12,-2.4 -34.7,-7.2 -9.19,-4.59 -13.97,-10.55 -14.35,-16.57 -0.01,0 -0.02,0.01 -0.03,0.01 0,-0.19 0,-0.39 0,-0.59 0,-0.13 0,-0.27 0,-0.4 v -260.91 l -147.75,73.89 v 759.57 c -39.51,0 -79.02,0 -118.53,0 -37.51,0 -75.03,0 -112.54,0 0,-253.2 0,-506.37 0,-759.57 l -231,-115.53 346.54,-173.31 263.28,131.67 -263.28,-131.67 -346.54,173.31 v -261.9 l -263.29,131.67 -283.84,-141.96 c -147.46,11.64 -296.31,17.6 -445.24,17.86 v 16.05 0 22.89 l -78.65,-39.33 c -24.74,-0.29 -49.56,-0.74 -74.28,-1.34 l -444.86,221.67 -50.45,-25.13 h -8.6 l -464.43,-235.57 -9.2,-4.58 v -66.48 c -74.31,-15.5 -147.6,-32.61 -219.64,-51.32 v 95.81 c 0,2.72 -2.22,4.94 -4.94,4.94 -2.74,0 -4.94,-2.22 -4.94,-4.94 v -98.39 c -7.05,-1.85 -14.03,-3.7 -21.05,-5.58 -0.11,0.01 -0.21,0.01 -0.31,0.01 -1.01,0 -1.95,-0.3 -2.74,-0.82 -7.18,-1.93 -14.33,-3.87 -21.49,-5.83 v 10.98 c 0,2.73 -2.22,4.94 -4.94,4.94 -2.73,0 -4.94,-2.21 -4.94,-4.94 v -13.7 c -5.57,-1.53 -11.14,-3.09 -16.68,-4.64 -0.67,1.93 -2.52,3.33 -4.68,3.33 -2.73,0 -4.94,-2.21 -4.94,-4.93 v -1.11 c -219.72,-62.23 -426.69,-139.9 -614.57,-233.01 -3.19,-1.59 -6.39,-3.17 -9.58,-4.76 -567.61,-283.87 -851.41,-655.92 -851.41,-1027.98 0,-231.17 109.56,-462.33 328.69,-672.35 l -430.73,-214.68 v -272.96 l -0.56,-1.12 0.56,-0.28 V 0 H 0 V 6000 H 10000 V 0 M 4819.69,3795.45 c -19.93,0 -44.8,-15.77 -61.42,-40.69 l -108.87,-163.32 639.41,319.77 v -28.33 c 0,-2.73 2.21,-4.94 4.94,-4.94 2.72,0 4.94,2.21 4.94,4.94 v 33.28 l 16.42,8.21 v -12.46 c 0,-2.73 2.21,-4.95 4.94,-4.95 2.72,0 4.94,2.22 4.94,4.95 v 17.4 l 19.29,9.64 v -45.39 c 0,-2.73 2.2,-4.95 4.94,-4.95 2.72,0 4.93,2.22 4.93,4.95 v 50.33 l 246.36,123.21 -214.37,107.15 c -1.8,0.9 -3.7,1.6 -5.68,2.1 v 36.11 c 0,2.73 -2.22,4.94 -4.94,4.94 -2.74,0 -4.94,-2.21 -4.94,-4.94 v -35.18 c -14.47,-0.65 -31.29,-9.29 -45.59,-23.5 v 101.31 c 0,2.72 -2.22,4.93 -4.94,4.93 -2.73,0 -4.94,-2.21 -4.94,-4.93 v -101.73 c 0,-2.69 2.16,-4.89 4.84,-4.94 -3.2,-3.65 -6.24,-7.6 -9.04,-11.8 l -4.2,-6.3 c -2.5,-3.75 -5.19,-7.29 -8.02,-10.6 v 12.56 c 0,2.73 -2.22,4.95 -4.94,4.95 -2.73,0 -4.94,-2.22 -4.94,-4.95 v -21.55 c 0,-0.36 0.04,-0.72 0.11,-1.06 -14.04,-12.65 -30,-20.04 -43.63,-20.04 -4.99,0 -9.67,0.99 -13.83,3.07 l -73.09,36.54 c -4.16,2.08 -8.83,3.06 -13.82,3.06 -19.92,0 -44.8,-15.76 -61.42,-40.69 l -174.39,-261.6 c -16.61,-24.93 -41.49,-40.69 -61.41,-40.7 -4.99,0 -9.66,0.99 -13.82,3.07 -4.16,2.08 -8.84,3.07 -13.82,3.07 m 474.06,-37.61 c -2.73,0 -4.94,-2.21 -4.94,-4.94 v -21.54 c 0,-2.74 2.21,-4.94 4.94,-4.94 2.72,0 4.94,2.2 4.94,4.94 v 21.54 c 0,2.73 -2.22,4.94 -4.94,4.94 m 55.47,33.35 c -2.74,0 -4.94,-2.21 -4.94,-4.94 v -21.54 c 0,-2.73 2.2,-4.94 4.94,-4.94 2.72,0 4.93,2.21 4.93,4.94 v 21.54 c 0,2.73 -2.21,4.94 -4.93,4.94 m -29.17,89.46 c -2.73,0 -4.94,-2.22 -4.94,-4.95 v -101.71 c 0,-2.74 2.21,-4.95 4.94,-4.95 2.72,0 4.94,2.21 4.94,4.95 v 101.71 c 0,2.73 -2.22,4.95 -4.94,4.95 m -26.3,-71.18 c -2.73,0 -4.94,-2.21 -4.94,-4.94 v -21.55 c 0,-2.73 2.21,-4.93 4.94,-4.93 2.72,0 4.94,2.2 4.94,4.93 v 21.55 c 0,2.73 -2.22,4.94 -4.94,4.94 m 55.47,19.54 c -2.74,0 -4.94,-2.21 -4.94,-4.94 v -21.54 c 0,-2.73 2.2,-4.94 4.94,-4.94 2.72,0 4.93,2.21 4.93,4.94 v 21.54 c 0,2.73 -2.21,4.94 -4.93,4.94 m -55.47,18.28 c -2.73,0 -4.94,-2.21 -4.94,-4.94 v -21.55 c 0,-2.72 2.21,-4.94 4.94,-4.94 2.72,0 4.94,2.22 4.94,4.94 v 21.55 c 0,2.73 -2.22,4.94 -4.94,4.94 m 55.47,33.36 c -2.74,0 -4.94,-2.22 -4.94,-4.95 v -21.55 c 0,-2.72 2.2,-4.94 4.94,-4.94 2.72,0 4.93,2.22 4.93,4.94 v 21.55 c 0,2.73 -2.21,4.95 -4.93,4.95 m 26.3,19.45 c -2.74,0 -4.94,-2.22 -4.94,-4.94 v -21.56 c 0,-2.72 2.2,-4.94 4.94,-4.94 2.72,0 4.94,2.22 4.94,4.94 v 21.56 c 0,2.72 -2.22,4.94 -4.94,4.94 m 0,37.81 c -2.74,0 -4.94,-2.21 -4.94,-4.94 v -21.54 c 0,-2.73 2.2,-4.94 4.94,-4.94 2.72,0 4.94,2.21 4.94,4.94 v 21.54 c 0,2.73 -2.22,4.94 -4.94,4.94 m -81.77,250.94 c -2.73,0 -4.94,-2.21 -4.94,-4.93 v -21.56 c 0,-2.72 2.21,-4.94 4.94,-4.94 2.72,0 4.94,2.22 4.94,4.94 v 21.56 c 0,2.72 -2.22,4.93 -4.94,4.93 m 55.47,19.55 c -2.74,0 -4.94,-2.22 -4.94,-4.94 v -21.56 c 0,-2.72 2.2,-4.93 4.94,-4.93 2.72,0 4.93,2.21 4.93,4.93 v 21.56 c 0,2.72 -2.21,4.94 -4.93,4.94 m -55.47,18.27 c -2.73,0 -4.94,-2.21 -4.94,-4.94 v -21.54 c 0,-2.74 2.21,-4.95 4.94,-4.95 2.72,0 4.94,2.21 4.94,4.95 v 21.54 c 0,2.73 -2.22,4.94 -4.94,4.94 m 55.47,33.35 c -2.74,0 -4.94,-2.21 -4.94,-4.93 v -21.55 c 0,-2.73 2.2,-4.95 4.94,-4.95 2.72,0 4.93,2.22 4.93,4.95 v 21.55 c 0,2.72 -2.21,4.93 -4.93,4.93 m 26.3,19.45 c -2.74,0 -4.94,-2.2 -4.94,-4.94 v -21.54 c 0,-2.73 2.2,-4.94 4.94,-4.94 2.72,0 4.94,2.21 4.94,4.94 v 21.54 c 0,2.74 -2.22,4.94 -4.94,4.94 m -81.77,89.46 c -2.73,0 -4.94,-2.22 -4.94,-4.95 v -101.71 c 0,-2.74 2.21,-4.95 4.94,-4.95 2.72,0 4.94,2.21 4.94,4.95 v 101.71 c 0,2.73 -2.22,4.95 -4.94,4.95 m 55.47,-28.33 c -2.74,0 -4.94,-2.22 -4.94,-4.95 v -62.71 c 0,-2.73 2.2,-4.94 4.94,-4.94 2.72,0 4.93,2.21 4.93,4.94 v 62.71 c 0,2.73 -2.21,4.95 -4.93,4.95 m 26.3,-23.3 c -2.74,0 -4.94,-2.21 -4.94,-4.95 v -21.54 c 0,-2.73 2.2,-4.94 4.94,-4.94 2.72,0 4.94,2.21 4.94,4.94 v 21.54 c 0,2.74 -2.22,4.95 -4.94,4.95 m -55.47,-11.5 c -2.73,0 -4.94,-2.21 -4.94,-4.94 v -5.08 c 0,-2.72 2.21,-4.94 4.94,-4.94 2.72,0 4.94,2.22 4.94,4.94 v 5.08 c 0,2.73 -2.22,4.94 -4.94,4.94 m 0,85.97 c -2.73,0 -4.94,-2.22 -4.94,-4.94 v -62.72 c 0,-2.72 2.21,-4.94 4.94,-4.94 2.72,0 4.94,2.22 4.94,4.94 v 62.72 c 0,2.72 -2.22,4.94 -4.94,4.94 m 55.47,-22.84 c -2.74,0 -4.94,-2.22 -4.94,-4.95 v -21.55 c 0,-2.72 2.2,-4.93 4.94,-4.93 2.72,0 4.94,2.21 4.94,4.93 v 21.55 c 0,2.73 -2.22,4.95 -4.94,4.95 m -26.3,0 c -2.74,0 -4.94,-2.22 -4.94,-4.95 v -5.07 c 0,-2.74 2.2,-4.95 4.94,-4.95 2.72,0 4.93,2.21 4.93,4.95 v 5.07 c 0,2.73 -2.21,4.95 -4.93,4.95 m 26.3,80.56 c -2.74,0 -4.94,-2.21 -4.94,-4.94 v -62.71 c 0,-2.73 2.2,-4.95 4.94,-4.95 2.72,0 4.94,2.22 4.94,4.95 v 62.71 c 0,2.73 -2.22,4.94 -4.94,4.94 m -26.3,61.85 c -2.74,0 -4.94,-2.21 -4.94,-4.93 v -101.73 c 0,-2.73 2.2,-4.94 4.94,-4.94 2.72,0 4.93,2.21 4.93,4.94 v 101.73 c 0,2.72 -2.21,4.93 -4.93,4.93 m -29.17,-80.17 c -2.73,0 -4.94,-2.22 -4.94,-4.94 v -21.55 c 0,-2.73 2.21,-4.94 4.94,-4.94 2.72,0 4.94,2.21 4.94,4.94 v 21.55 c 0,2.72 -2.22,4.94 -4.94,4.94 m -26.3,-16.47 c -2.73,0 -4.94,-2.21 -4.94,-4.94 v -5.08 c 0,-2.73 2.21,-4.94 4.94,-4.94 2.72,0 4.94,2.21 4.94,4.94 v 5.08 c 0,2.73 -2.22,4.94 -4.94,4.94 m 0,85.96 c -2.73,0 -4.94,-2.2 -4.94,-4.94 v -62.71 c 0,-2.73 2.21,-4.94 4.94,-4.94 2.72,0 4.94,2.21 4.94,4.94 v 62.71 c 0,2.74 -2.22,4.94 -4.94,4.94 m 26.3,-17.87 c -2.73,0 -4.94,-2.2 -4.94,-4.94 v -21.54 c 0,-2.73 2.21,-4.94 4.94,-4.94 2.72,0 4.94,2.21 4.94,4.94 v 21.54 c 0,2.74 -2.22,4.94 -4.94,4.94 m 55.47,-4.97 c -2.74,0 -4.94,-2.21 -4.94,-4.94 v -5.08 c 0,-2.72 2.2,-4.94 4.94,-4.94 2.72,0 4.94,2.22 4.94,4.94 v 5.08 c 0,2.73 -2.22,4.94 -4.94,4.94 m -55.47,42.8 c -2.73,0 -4.94,-2.21 -4.94,-4.95 v -21.54 c 0,-2.73 2.21,-4.94 4.94,-4.94 2.72,0 4.94,2.21 4.94,4.94 v 21.54 c 0,2.74 -2.22,4.95 -4.94,4.95 m 55.47,99.62 c -2.74,0 -4.94,-2.21 -4.94,-4.94 v -101.72 c 0,-2.73 2.2,-4.94 4.94,-4.94 2.72,0 4.94,2.21 4.94,4.94 v 101.72 c 0,2.73 -2.22,4.94 -4.94,4.94 m -81.77,-80.17 c -2.73,0 -4.94,-2.22 -4.94,-4.94 v -21.55 c 0,-2.73 2.21,-4.94 4.94,-4.94 2.72,0 4.94,2.21 4.94,4.94 v 21.55 c 0,2.72 -2.22,4.94 -4.94,4.94 m 55.47,33.35 c -2.74,0 -4.94,-2.21 -4.94,-4.94 v -21.55 c 0,-2.73 2.2,-4.94 4.94,-4.94 2.72,0 4.93,2.21 4.93,4.94 v 21.55 c 0,2.73 -2.21,4.94 -4.93,4.94 m -29.17,89.45 c -2.73,0 -4.94,-2.22 -4.94,-4.94 V 4556.2 c 0,-2.72 2.21,-4.93 4.94,-4.93 2.72,0 4.94,2.21 4.94,4.93 v 101.73 c 0,2.72 -2.22,4.94 -4.94,4.94 m -26.3,-71.17 c -2.73,0 -4.94,-2.22 -4.94,-4.94 v -21.55 c 0,-2.73 2.21,-4.95 4.94,-4.95 2.72,0 4.94,2.22 4.94,4.95 v 21.55 c 0,2.72 -2.22,4.94 -4.94,4.94 m 55.47,19.54 c -2.74,0 -4.94,-2.22 -4.94,-4.94 v -21.55 c 0,-2.73 2.2,-4.94 4.94,-4.94 2.72,0 4.93,2.21 4.93,4.94 v 21.55 c 0,2.72 -2.21,4.94 -4.93,4.94 m -55.47,18.27 c -2.73,0 -4.94,-2.2 -4.94,-4.94 v -21.54 c 0,-2.73 2.21,-4.94 4.94,-4.94 2.72,0 4.94,2.21 4.94,4.94 v 21.54 c 0,2.74 -2.22,4.94 -4.94,4.94 m 55.47,33.36 c -2.74,0 -4.94,-2.22 -4.94,-4.94 v -21.55 c 0,-2.73 2.2,-4.94 4.94,-4.94 2.72,0 4.93,2.21 4.93,4.94 v 21.55 c 0,2.72 -2.21,4.94 -4.93,4.94 m 26.3,19.45 c -2.74,0 -4.94,-2.21 -4.94,-4.94 v -21.55 c 0,-2.72 2.2,-4.94 4.94,-4.94 2.72,0 4.94,2.22 4.94,4.94 v 21.55 c 0,2.73 -2.22,4.94 -4.94,4.94 m -81.77,120.66 c -2.73,0 -4.94,-2.21 -4.94,-4.94 v -132.93 c 0,-2.74 2.21,-4.94 4.94,-4.94 2.72,0 4.94,2.2 4.94,4.94 v 132.93 c 0,2.73 -2.22,4.94 -4.94,4.94 m 55.47,-59.54 c -2.74,0 -4.94,-2.22 -4.94,-4.94 v -62.72 c 0,-2.73 2.2,-4.94 4.94,-4.94 2.72,0 4.93,2.21 4.93,4.94 v 62.72 c 0,2.72 -2.21,4.94 -4.93,4.94 m 26.3,-23.3 c -2.74,0 -4.94,-2.21 -4.94,-4.95 v -21.54 c 0,-2.73 2.2,-4.94 4.94,-4.94 2.72,0 4.94,2.21 4.94,4.94 v 21.54 c 0,2.74 -2.22,4.95 -4.94,4.95 m -55.47,10.04 c -2.73,0 -4.94,-2.22 -4.94,-4.95 v -5.08 c 0,-2.73 2.21,-4.94 4.94,-4.94 2.72,0 4.94,2.21 4.94,4.94 v 5.08 c 0,2.73 -2.22,4.95 -4.94,4.95 m 0,89.26 c -2.73,0 -4.94,-2.2 -4.94,-4.94 v -72.77 c 0,-2.73 2.21,-4.94 4.94,-4.94 2.72,0 4.94,2.21 4.94,4.94 v 72.77 c 0,2.74 -2.22,4.94 -4.94,4.94 m 55.47,3.56 c -2.74,0 -4.94,-2.22 -4.94,-4.94 v -72.78 c 0,-2.73 2.2,-4.94 4.94,-4.94 2.72,0 4.94,2.21 4.94,4.94 v 72.78 c 0,2.72 -2.22,4.94 -4.94,4.94 m -26.3,-51.23 c -2.74,0 -4.94,-2.22 -4.94,-4.94 v -5.08 c 0,-2.74 2.2,-4.94 4.94,-4.94 2.72,0 4.93,2.2 4.93,4.94 v 5.08 c 0,2.72 -2.21,4.94 -4.93,4.94 m 369.73,150.36 c -13.62,0 -30.37,-11.9 -41.63,-31.02 l -77.34,-131.29 797.83,438.98 -85.48,52.29 c -3.09,1.89 -6.6,2.79 -10.34,2.79 -13.63,0 -30.38,-11.89 -41.64,-31.01 l -3.17,-5.4 c -11.26,-19.11 -28.01,-31.01 -41.64,-31.01 -3.75,0 -7.25,0.9 -10.35,2.79 l -90.51,55.37 c -4.92,3.01 -10.5,4.43 -16.44,4.43 -21.66,0 -48.28,-18.9 -66.18,-49.28 l -91.72,-155.72 c -11.26,-19.11 -28.01,-31.01 -41.63,-31.01 -3.75,0 -7.25,0.9 -10.34,2.79 L 5865.2,5030 c -3.1,1.89 -6.61,2.79 -10.35,2.79 -13.63,0 -30.38,-11.9 -41.64,-31.01 l -31.93,-54.22 c -11.26,-19.11 -28.01,-31.01 -41.64,-31.01 -3.74,0 -7.25,0.89 -10.34,2.79 -3.1,1.89 -6.6,2.79 -10.35,2.79 m -369.73,-22.51 c -2.74,0 -4.94,-2.21 -4.94,-4.94 v -101.72 c 0,-2.73 2.2,-4.94 4.94,-4.94 2.72,0 4.93,2.21 4.93,4.94 v 101.72 c 0,2.73 -2.21,4.94 -4.93,4.94 m -55.47,-10.67 c -2.73,0 -4.94,-2.21 -4.94,-4.95 v -62.71 c 0,-2.73 2.21,-4.94 4.94,-4.94 2.72,0 4.94,2.21 4.94,4.94 V 4884 c 0,2.74 -2.22,4.95 -4.94,4.95 m 81.77,-9.68 c -2.74,0 -4.94,-2.21 -4.94,-4.94 v -39.78 c 0,-2.72 2.2,-4.94 4.94,-4.94 2.72,0 4.94,2.22 4.94,4.94 v 39.78 c 0,2.73 -2.22,4.94 -4.94,4.94 m -55.47,-8.2 c -2.73,0 -4.94,-2.2 -4.94,-4.94 v -21.54 c 0,-2.73 2.21,-4.94 4.94,-4.94 2.72,0 4.94,2.21 4.94,4.94 v 21.54 c 0,2.74 -2.22,4.94 -4.94,4.94 m 0,37.83 c -2.73,0 -4.94,-2.22 -4.94,-4.94 v -21.56 c 0,-2.72 2.21,-4.93 4.94,-4.93 2.72,0 4.94,2.21 4.94,4.93 v 21.56 c 0,2.72 -2.22,4.94 -4.94,4.94 m 55.47,99.62 c -2.74,0 -4.94,-2.21 -4.94,-4.94 v -101.72 c 0,-2.73 2.2,-4.95 4.94,-4.95 2.72,0 4.94,2.22 4.94,4.95 v 101.72 c 0,2.73 -2.22,4.94 -4.94,4.94 m -81.77,-80.17 c -2.73,0 -4.94,-2.22 -4.94,-4.94 v -21.55 c 0,-2.73 2.21,-4.95 4.94,-4.95 2.72,0 4.94,2.22 4.94,4.95 v 21.55 c 0,2.72 -2.22,4.94 -4.94,4.94 m 1174.2,156.53 c -8.77,0 -19.55,-7.67 -26.8,-19.97 l -95.31,-161.82 422.91,229.63 -48.41,29.62 c -1.99,1.22 -4.25,1.8 -6.65,1.8 -8.77,0 -19.56,-7.66 -26.8,-19.96 -7.25,-12.3 -18.03,-19.96 -26.8,-19.96 -2.41,0 -4.66,0.58 -6.65,1.8 l -77.55,47.43 c -1.99,1.22 -4.25,1.8 -6.66,1.8 -8.77,0 -19.55,-7.66 -26.8,-19.96 l -32.5,-55.19 c -7.25,-12.31 -18.03,-19.96 -26.8,-19.96 -2.41,0 -4.67,0.58 -6.66,1.79 l -1.86,1.15 c -1.99,1.22 -4.25,1.8 -6.66,1.8 M 5349.22,4961.7 c -2.74,0 -4.94,-2.22 -4.94,-4.94 v -21.54 c 0,-2.74 2.2,-4.95 4.94,-4.95 2.72,0 4.93,2.21 4.93,4.95 v 21.54 c 0,2.72 -2.21,4.94 -4.93,4.94 m -29.17,89.44 c -2.73,0 -4.94,-2.21 -4.94,-4.94 v -101.72 c 0,-2.72 2.21,-4.94 4.94,-4.94 2.72,0 4.94,2.22 4.94,4.94 v 101.72 c 0,2.73 -2.22,4.94 -4.94,4.94 m -26.3,-71.17 c -2.73,0 -4.94,-2.21 -4.94,-4.93 v -21.55 c 0,-2.73 2.21,-4.95 4.94,-4.95 2.72,0 4.94,2.22 4.94,4.95 v 21.55 c 0,2.72 -2.22,4.93 -4.94,4.93 m 55.47,19.55 c -2.74,0 -4.94,-2.22 -4.94,-4.94 v -21.55 c 0,-2.73 2.2,-4.94 4.94,-4.94 2.72,0 4.93,2.21 4.93,4.94 v 21.55 c 0,2.72 -2.21,4.94 -4.93,4.94 m -55.47,18.27 c -2.73,0 -4.94,-2.2 -4.94,-4.94 v -21.54 c 0,-2.74 2.21,-4.94 4.94,-4.94 2.72,0 4.94,2.2 4.94,4.94 v 21.54 c 0,2.74 -2.22,4.94 -4.94,4.94 m 55.47,33.35 c -2.74,0 -4.94,-2.21 -4.94,-4.94 v -21.54 c 0,-2.73 2.2,-4.94 4.94,-4.94 2.72,0 4.93,2.21 4.93,4.94 v 21.54 c 0,2.73 -2.21,4.94 -4.93,4.94 m 26.3,19.46 c -2.74,0 -4.94,-2.21 -4.94,-4.94 v -21.55 c 0,-2.73 2.2,-4.94 4.94,-4.94 2.72,0 4.94,2.21 4.94,4.94 v 21.55 c 0,2.73 -2.22,4.94 -4.94,4.94 m -81.77,89.45 c -2.73,0 -4.94,-2.22 -4.94,-4.94 v -101.73 c 0,-2.72 2.21,-4.93 4.94,-4.93 2.72,0 4.94,2.21 4.94,4.93 v 101.73 c 0,2.72 -2.22,4.94 -4.94,4.94 m 55.47,-28.34 c -2.74,0 -4.94,-2.21 -4.94,-4.93 v -62.72 c 0,-2.73 2.2,-4.94 4.94,-4.94 2.72,0 4.93,2.21 4.93,4.94 v 62.72 c 0,2.72 -2.21,4.93 -4.93,4.93 m 26.3,-23.29 c -2.74,0 -4.94,-2.22 -4.94,-4.94 v -21.55 c 0,-2.73 2.2,-4.94 4.94,-4.94 2.72,0 4.94,2.21 4.94,4.94 v 21.55 c 0,2.72 -2.22,4.94 -4.94,4.94 m -55.47,-11.49 c -2.73,0 -4.94,-2.22 -4.94,-4.95 v -5.08 c 0,-2.73 2.21,-4.94 4.94,-4.94 2.72,0 4.94,2.21 4.94,4.94 v 5.08 c 0,2.73 -2.22,4.95 -4.94,4.95 m 0,85.96 c -2.73,0 -4.94,-2.21 -4.94,-4.94 v -62.72 c 0,-2.72 2.21,-4.94 4.94,-4.94 2.72,0 4.94,2.22 4.94,4.94 v 62.72 c 0,2.73 -2.22,4.94 -4.94,4.94 m 55.47,-22.84 c -2.74,0 -4.94,-2.22 -4.94,-4.94 v -21.56 c 0,-2.72 2.2,-4.94 4.94,-4.94 2.72,0 4.94,2.22 4.94,4.94 v 21.56 c 0,2.72 -2.22,4.94 -4.94,4.94 m -26.3,0 c -2.74,0 -4.94,-2.22 -4.94,-4.94 v -5.08 c 0,-2.73 2.2,-4.94 4.94,-4.94 2.72,0 4.93,2.21 4.93,4.94 v 5.08 c 0,2.72 -2.21,4.94 -4.93,4.94 m 26.3,80.57 c -2.74,0 -4.94,-2.22 -4.94,-4.95 v -62.71 c 0,-2.73 2.2,-4.94 4.94,-4.94 2.72,0 4.94,2.21 4.94,4.94 v 62.71 c 0,2.73 -2.22,4.95 -4.94,4.95 m -26.3,61.84 c -2.74,0 -4.94,-2.21 -4.94,-4.94 V 5195.8 c 0,-2.73 2.2,-4.94 4.94,-4.94 2.72,0 4.93,2.21 4.93,4.94 v 101.72 c 0,2.73 -2.21,4.94 -4.93,4.94 m -29.17,-80.17 c -2.73,0 -4.94,-2.21 -4.94,-4.94 v -21.55 c 0,-2.73 2.21,-4.94 4.94,-4.94 2.72,0 4.94,2.21 4.94,4.94 v 21.55 c 0,2.73 -2.22,4.94 -4.94,4.94 m -26.3,-16.47 c -2.73,0 -4.94,-2.21 -4.94,-4.94 v -5.08 c 0,-2.73 2.21,-4.94 4.94,-4.94 2.72,0 4.94,2.21 4.94,4.94 v 5.08 c 0,2.73 -2.22,4.94 -4.94,4.94 m 0,85.97 c -2.73,0 -4.94,-2.21 -4.94,-4.95 v -62.71 c 0,-2.72 2.21,-4.94 4.94,-4.94 2.72,0 4.94,2.22 4.94,4.94 v 62.71 c 0,2.74 -2.22,4.95 -4.94,4.95 m 26.3,-17.88 c -2.73,0 -4.94,-2.2 -4.94,-4.94 v -21.54 c 0,-2.73 2.21,-4.94 4.94,-4.94 2.72,0 4.94,2.21 4.94,4.94 v 21.54 c 0,2.74 -2.22,4.94 -4.94,4.94 m 55.47,-4.96 c -2.74,0 -4.94,-2.22 -4.94,-4.95 v -5.07 c 0,-2.74 2.2,-4.95 4.94,-4.95 2.72,0 4.94,2.21 4.94,4.95 v 5.07 c 0,2.73 -2.22,4.95 -4.94,4.95 m -55.47,42.79 c -2.73,0 -4.94,-2.22 -4.94,-4.94 v -21.55 c 0,-2.73 2.21,-4.94 4.94,-4.94 2.72,0 4.94,2.21 4.94,4.94 v 21.55 c 0,2.72 -2.22,4.94 -4.94,4.94 m 55.47,99.63 c -2.74,0 -4.94,-2.22 -4.94,-4.94 V 5304.7 c 0,-2.73 2.2,-4.93 4.94,-4.93 2.72,0 4.94,2.2 4.94,4.93 v 101.73 c 0,2.72 -2.22,4.94 -4.94,4.94 m -81.77,-80.18 c -2.73,0 -4.94,-2.21 -4.94,-4.94 v -21.55 c 0,-2.73 2.21,-4.93 4.94,-4.93 2.72,0 4.94,2.2 4.94,4.93 v 21.55 c 0,2.73 -2.22,4.94 -4.94,4.94 m 55.47,33.35 c -2.74,0 -4.94,-2.2 -4.94,-4.94 v -21.54 c 0,-2.74 2.2,-4.94 4.94,-4.94 2.72,0 4.93,2.2 4.93,4.94 v 21.54 c 0,2.74 -2.21,4.94 -4.93,4.94 m -29.17,89.44 c -2.73,0 -4.94,-2.2 -4.94,-4.93 v -101.73 c 0,-2.72 2.21,-4.94 4.94,-4.94 2.72,0 4.94,2.22 4.94,4.94 v 101.73 c 0,2.73 -2.22,4.93 -4.94,4.93 m -26.3,-71.17 c -2.73,0 -4.94,-2.2 -4.94,-4.93 v -21.55 c 0,-2.73 2.21,-4.94 4.94,-4.94 2.72,0 4.94,2.21 4.94,4.94 v 21.55 c 0,2.73 -2.22,4.93 -4.94,4.93 m 55.47,19.55 c -2.74,0 -4.94,-2.22 -4.94,-4.94 v -21.55 c 0,-2.73 2.2,-4.93 4.94,-4.93 2.72,0 4.93,2.2 4.93,4.93 v 21.55 c 0,2.72 -2.21,4.94 -4.93,4.94 m -55.47,18.27 c -2.73,0 -4.94,-2.2 -4.94,-4.94 v -21.54 c 0,-2.72 2.21,-4.94 4.94,-4.94 2.72,0 4.94,2.22 4.94,4.94 v 21.54 c 0,2.74 -2.22,4.94 -4.94,4.94 m 55.47,33.35 c -2.74,0 -4.94,-2.2 -4.94,-4.93 v -21.55 c 0,-2.73 2.2,-4.94 4.94,-4.94 2.72,0 4.93,2.21 4.93,4.94 v 21.55 c 0,2.73 -2.21,4.93 -4.93,4.93 m 26.3,19.46 c -2.74,0 -4.94,-2.21 -4.94,-4.94 v -21.55 c 0,-2.72 2.2,-4.94 4.94,-4.94 2.72,0 4.94,2.22 4.94,4.94 v 21.55 c 0,2.73 -2.22,4.94 -4.94,4.94 m -81.77,89.45 c -2.73,0 -4.94,-2.21 -4.94,-4.94 v -101.72 c 0,-2.73 2.21,-4.94 4.94,-4.94 2.72,0 4.94,2.21 4.94,4.94 v 101.72 c 0,2.73 -2.22,4.94 -4.94,4.94 m 55.47,-28.33 c -2.74,0 -4.94,-2.22 -4.94,-4.94 v -62.72 c 0,-2.73 2.2,-4.94 4.94,-4.94 2.72,0 4.93,2.21 4.93,4.94 v 62.72 c 0,2.72 -2.21,4.94 -4.93,4.94 m 26.3,-23.3 c -2.74,0 -4.94,-2.21 -4.94,-4.94 v -21.54 c 0,-2.74 2.2,-4.94 4.94,-4.94 2.72,0 4.94,2.2 4.94,4.94 v 21.54 c 0,2.73 -2.22,4.94 -4.94,4.94 m -55.47,10.03 c -2.73,0 -4.94,-2.21 -4.94,-4.93 v -5.09 c 0,-2.72 2.21,-4.93 4.94,-4.93 2.72,0 4.94,2.21 4.94,4.93 v 5.09 c 0,2.72 -2.22,4.93 -4.94,4.93 m 0,38.05 c -2.73,0 -4.94,-2.21 -4.94,-4.94 v -21.55 c 0,-2.72 2.21,-4.94 4.94,-4.94 2.72,0 4.94,2.22 4.94,4.94 v 21.55 c 0,2.73 -2.22,4.94 -4.94,4.94 m 55.47,3.55 c -2.74,0 -4.94,-2.21 -4.94,-4.94 v -21.56 c 0,-2.72 2.2,-4.93 4.94,-4.93 2.72,0 4.94,2.21 4.94,4.93 v 21.56 c 0,2.73 -2.22,4.94 -4.94,4.94 m -26.3,0 c -2.74,0 -4.94,-2.21 -4.94,-4.94 v -5.08 c 0,-2.73 2.2,-4.94 4.94,-4.94 2.72,0 4.93,2.21 4.93,4.94 v 5.08 c 0,2.73 -2.21,4.94 -4.93,4.94" />
    </clipPath>
    <radialGradient
       id="radialGradient26"
       spreadMethod="pad"
       gradientTransform="matrix(4123.1,0,0,-4123.1,5000,3000)"
       gradientUnits="userSpaceOnUse"
       r="1"
       cy="0"
       cx="0"
       fy="0"
       fx="0">
      <stop
         id="stop22"
         offset="0"
         style="stop-opacity:1;stop-color:#0c5fe7" />
      <stop
         id="stop24"
         offset="1"
         style="stop-opacity:1;stop-color:#1f227d" />
    </radialGradient>
    <radialGradient
       inkscape:collect="always"
       xlink:href="#radialGradient26"
       id="radialGradient86008"
       cx="108.9"
       cy="145.87347"
       fx="108.9"
       fy="145.87347"
       r="102.48061"
       gradientTransform="matrix(1.0276249,0,0,1.4515189,-6.6379912,-63.44015)"
       gradientUnits="userSpaceOnUse" />
  </defs>
  <sodipodi:namedview
     id="base"
     pagecolor="#ffffff"
     bordercolor="#666666"
     borderopacity="1.0"
     inkscape:pageopacity="0.0"
     inkscape:pageshadow="2"
     inkscape:zoom="0.87642854"
     inkscape:cx="396.85039"
     inkscape:cy="561.25984"
     inkscape:document-units="mm"
     inkscape:current-layer="g91441"
     inkscape:document-rotation="0"
     showgrid="false"
     inkscape:window-width="1680"
     inkscape:window-height="987"
     inkscape:window-x="-8"
     inkscape:window-y="-8"
     inkscape:window-maximized="1" />
  <metadata
     id="metadata85169">
    <rdf:RDF>
      <cc:Work
         rdf:about="">
        <dc:format>image/svg+xml</dc:format>
        <dc:type
           rdf:resource="http://purl.org/dc/dcmitype/StillImage" />
        <dc:title></dc:title>
      </cc:Work>
    </rdf:RDF>
  </metadata>
  <g
     inkscape:label="Capa 1"
     inkscape:groupmode="layer"
     id="layer1">
    <rect
       style="fill:url(#radialGradient86008);fill-opacity:1;stroke:#ffffff;stroke-width:0.919887;stroke-linecap:round;paint-order:stroke markers fill"
       id="rect85885"
       width="209.69839"
       height="296.59015"
       x="0.42116266"
       y="0.0028865379"
       sodipodi:insensitive="true" />
    <g
       id="g91441"
       transform="matrix(1.6927712,0,0,1.7404989,-65.85665,-60.340839)">
      <path
         id="path1744"
         style="fill:#ffffff;fill-opacity:1;fill-rule:nonzero;stroke:none;stroke-width:0.0352778"
         d="m 60.207246,85.934028 v 2.139597 h 0.968904 c 0.859472,0 1.289156,-0.362302 1.289156,-1.087261 0,-0.339019 -0.115218,-0.599369 -0.344911,-0.780344 -0.230152,-0.181328 -0.56321,-0.271992 -1.000055,-0.271992 z m 0,-2.014008 h 0.82931 c 0.394793,0 0.700299,-0.08114 0.916375,-0.24377 0.216076,-0.16263 0.324273,-0.404636 0.324273,-0.724958 0,-0.5715 -0.432011,-0.857603 -1.296458,-0.857603 h -0.7735 z m -2.752902,-3.910189 h 3.554377 c 1.384512,0 2.412542,0.20567 3.084053,0.617008 0.671265,0.410987 1.006757,1.051278 1.006757,1.919817 0,0.571853 -0.14605,1.059392 -0.43875,1.464028 -0.292805,0.40393 -0.67825,0.66428 -1.156862,0.780344 v 0.06985 c 0.631823,0.167217 1.089341,0.445911 1.373009,0.836084 0.283281,0.390525 0.425097,0.896761 0.425097,1.519766 0,0.924631 -0.347486,1.652764 -1.041823,2.184753 -0.694935,0.531989 -1.64165,0.797983 -2.840283,0.797983 H 57.454344 V 80.009831" />
      <path
         id="path1746"
         style="fill:#ffffff;fill-opacity:1;fill-rule:nonzero;stroke:none;stroke-width:0.0352778"
         d="M 67.072264,90.199464 V 80.009831 h 2.753078 v 7.966428 h 3.923594 v 2.223205 h -6.676672" />
      <path
         id="path1748"
         style="fill:#ffffff;fill-opacity:1;fill-rule:nonzero;stroke:none;stroke-width:0.0352778"
         d="m 77.902895,85.090537 c 0,1.970263 0.685447,2.955219 2.056341,2.955219 0.696736,0 1.213556,-0.239183 1.550459,-0.717903 0.336902,-0.478366 0.50553,-1.224139 0.50553,-2.237316 0,-1.017059 -0.171097,-1.768828 -0.512233,-2.25425 C 81.16115,82.350512 80.651033,82.1078 79.972995,82.1078 c -1.380067,0 -2.0701,0.994481 -2.0701,2.982737 z m 7.011105,0 c 0,1.714852 -0.420158,3.018013 -1.26118,3.910188 -0.841023,0.892175 -2.07257,1.338086 -3.693584,1.338086 -1.598789,0 -2.823986,-0.44838 -3.67665,-1.345141 -0.852664,-0.896761 -1.278819,-2.202039 -1.278819,-3.916892 0,-1.695803 0.423686,-2.99085 1.271764,-3.885494 0.847725,-0.894292 2.080683,-1.341614 3.697464,-1.341614 1.621366,0 2.850444,0.443794 3.68688,1.331031 0.836436,0.887588 1.254125,2.190749 1.254125,3.909836" />
      <path
         id="path1750"
         style="fill:#ffffff;fill-opacity:1;fill-rule:nonzero;stroke:none;stroke-width:0.0352778"
         d="m 91.291517,82.121559 c -0.655109,0 -1.166284,0.268464 -1.533173,0.805391 -0.367241,0.536575 -0.551039,1.27635 -0.551039,2.219678 0,1.960739 0.746125,2.941108 2.237317,2.941108 0.45085,0 0.887589,-0.06279 1.31057,-0.188383 0.422627,-0.125236 0.847725,-0.276225 1.275291,-0.452967 v 2.327981 c -0.850194,0.376414 -1.811866,0.564444 -2.885369,0.564444 -1.538111,0 -2.717095,-0.445911 -3.537303,-1.338086 -0.819855,-0.892175 -1.229783,-2.181577 -1.229783,-3.867855 0,-1.055158 0.198261,-1.981906 0.595489,-2.780947 0.39758,-0.799395 0.968727,-1.413934 1.714852,-1.843617 0.745773,-0.430036 1.622425,-0.644525 2.631017,-0.644525 1.101372,0 2.153356,0.239183 3.157008,0.71755 l -0.843139,2.167819 c -0.376413,-0.176741 -0.752827,-0.325261 -1.129241,-0.446263 -0.376061,-0.12065 -0.780697,-0.181328 -1.212497,-0.181328" />
      <path
         id="path1752"
         style="fill:#ffffff;fill-opacity:1;fill-rule:nonzero;stroke:none;stroke-width:0.0352778"
         d="m 104.72177,90.199464 h -3.10868 l -2.01401,-3.896077 -0.815269,0.488244 v 3.407833 H 96.016622 V 80.009831 h 2.767189 v 4.42595 c 0.138994,-0.274108 0.420158,-0.708731 0.843491,-1.303161 l 2.139248,-3.122789 h 3.01096 l -3.21275,4.565297 3.15701,5.624336" />
      <path
         id="path1754"
         style="fill:#ffffff;fill-opacity:1;fill-rule:nonzero;stroke:none;stroke-width:0.0352778"
         d="m 110.36021,82.121559 c -0.6551,0 -1.16628,0.268464 -1.53317,0.805391 -0.36724,0.536575 -0.55068,1.27635 -0.55068,2.219678 0,1.960739 0.74541,2.941108 2.23731,2.941108 0.4505,0 0.88759,-0.06279 1.31022,-0.188383 0.42263,-0.125236 0.84772,-0.276225 1.27529,-0.452967 v 2.327981 c -0.85019,0.376414 -1.81222,0.564444 -2.88537,0.564444 -1.53776,0 -2.71709,-0.445911 -3.53695,-1.338086 -0.82021,-0.892175 -1.23014,-2.181577 -1.23014,-3.867855 0,-1.055158 0.19862,-1.981906 0.59585,-2.780947 0.39722,-0.799395 0.96872,-1.413934 1.7145,-1.843617 0.74577,-0.430036 1.62277,-0.644525 2.63066,-0.644525 1.10172,0 2.15406,0.239183 3.15771,0.71755 l -0.84349,2.167819 c -0.37606,-0.176741 -0.75283,-0.325261 -1.12889,-0.446263 -0.37676,-0.12065 -0.78069,-0.181328 -1.21285,-0.181328" />
      <path
         id="path1756"
         style="fill:#ffffff;fill-opacity:1;fill-rule:nonzero;stroke:none;stroke-width:0.0352778"
         d="m 123.81833,90.199464 h -2.76683 v -4.153958 h -3.19899 v 4.153958 h -2.76684 V 80.009831 h 2.76684 v 3.777544 h 3.19899 v -3.777544 h 2.76683 v 10.189633" />
      <path
         id="path1758"
         style="fill:#ffffff;fill-opacity:1;fill-rule:nonzero;stroke:none;stroke-width:0.0352778"
         d="m 131.19915,86.031395 -0.43921,-1.67252 c -0.1023,-0.371475 -0.22648,-0.852663 -0.37253,-1.442861 -0.14641,-0.589844 -0.24307,-1.012825 -0.28928,-1.267883 -0.042,0.236714 -0.12453,0.626886 -0.24765,1.170517 -0.12312,0.54363 -0.39617,1.614664 -0.8188,3.212747 z m 1.0735,4.168069 -0.502,-1.909586 h -3.31047 l -0.51576,1.909586 h -3.02472 l 3.32458,-10.231261 h 3.67277 l 3.36621,10.231261 h -3.01061" />
      <path
         id="path1760"
         style="fill:#ffffff;fill-opacity:1;fill-rule:nonzero;stroke:none;stroke-width:0.0352778"
         d="M 136.38463,90.199464 V 80.009831 h 2.76684 v 10.189633 h -2.76684" />
      <path
         id="path1762"
         style="fill:#ffffff;fill-opacity:1;fill-rule:nonzero;stroke:none;stroke-width:0.0352778"
         d="m 151.0556,90.199464 h -3.61033 l -3.72145,-7.178675 h -0.0631 c 0.0885,1.128889 0.13265,1.991078 0.13265,2.585509 v 4.593166 h -2.43946 V 80.009831 h 3.59621 l 3.70805,7.080955 h 0.0416 c -0.0653,-1.026583 -0.0974,-1.851377 -0.0974,-2.473677 v -4.607278 h 2.45322 v 10.189633" />
      <path
         id="path1764"
         style="fill:#ffff00;fill-opacity:1;fill-rule:nonzero;stroke:none;stroke-width:0.0352778"
         d="m 61.040013,117.14922 -0.688764,-1.83515 c -0.08915,-0.23248 -0.180798,-0.51753 -0.275448,-0.85514 -0.05927,0.25965 -0.144428,0.54434 -0.255376,0.85514 l -0.697019,1.83515 z m 0.952218,2.50437 -0.737271,-1.88419 h -2.374617 l -0.72898,1.88419 h -0.697019 l 2.341704,-5.94819 h 0.579473 l 2.32985,5.94819 h -0.71314" />
      <path
         id="path1766"
         style="fill:#ffff00;fill-opacity:1;fill-rule:nonzero;stroke:none;stroke-width:0.0352778"
         d="m 68.146825,119.65359 h -0.785636 l -3.237406,-4.9717 h -0.03239 c 0.04297,0.58349 0.06477,1.1183 0.06477,1.60443 v 3.36727 h -0.636374 v -5.92385 h 0.777873 l 3.229328,4.95124 h 0.03245 c -0.0053,-0.0727 -0.01764,-0.30727 -0.03634,-0.70274 -0.01905,-0.39581 -0.02611,-0.67874 -0.02046,-0.84878 v -3.39972 h 0.644172 v 5.92385" />
      <path
         id="path1768"
         style="fill:#ffff00;fill-opacity:1;fill-rule:nonzero;stroke:none;stroke-width:0.0352778"
         d="m 73.775042,116.65921 c 0,-0.77259 -0.194028,-1.35467 -0.581378,-1.74625 -0.387703,-0.39194 -0.963789,-0.58738 -1.728258,-0.58738 h -1.000831 v 4.73252 h 0.838553 c 0.82162,0 1.438628,-0.20214 1.851731,-0.60572 0.413102,-0.40393 0.620183,-1.00154 0.620183,-1.79317 z m 0.729544,-0.0247 c 0,0.97826 -0.265641,1.72579 -0.796572,2.24332 -0.530578,0.51717 -1.294341,0.77576 -2.290939,0.77576 H 69.7756 v -5.92385 h 1.815395 c 0.921103,0 1.636889,0.25541 2.147711,0.76588 0.510469,0.51047 0.76588,1.22379 0.76588,2.13889" />
      <path
         id="path1770"
         style="fill:#ffff00;fill-opacity:1;fill-rule:nonzero;stroke:none;stroke-width:0.0352778"
         d="m 80.517331,114.26067 c -0.650875,0 -1.164873,0.21661 -1.541992,0.65017 -0.376767,0.43357 -0.56515,1.02729 -0.56515,1.78082 0,0.77541 0.182033,1.37443 0.545042,1.7967 0.363361,0.42333 0.881239,0.6343 1.553986,0.6343 0.413103,0 0.884766,-0.0741 1.413933,-0.22296 v 0.6036 c -0.410633,0.15417 -0.917222,0.23142 -1.519414,0.23142 -0.872419,0 -1.545872,-0.26458 -2.019652,-0.7941 -0.474134,-0.52952 -0.7112,-1.28164 -0.7112,-2.25707 0,-0.61031 0.113947,-1.14547 0.342547,-1.60443 0.227894,-0.45897 0.557389,-0.8128 0.988483,-1.06151 0.430742,-0.24871 0.938036,-0.37289 1.521531,-0.37289 0.621241,0 1.164166,0.11324 1.628422,0.34043 l -0.291395,0.59126 c -0.44838,-0.21061 -0.897114,-0.31574 -1.345141,-0.31574" />
      <path
         id="path1772"
         style="fill:#ffff00;fill-opacity:1;fill-rule:nonzero;stroke:none;stroke-width:0.0352778"
         d="m 83.90435,116.59853 h 0.944033 c 0.486481,0 0.843139,-0.097 1.069623,-0.28963 0.227188,-0.19332 0.34043,-0.48295 0.34043,-0.86924 0,-0.39194 -0.115358,-0.67381 -0.346075,-0.84702 -0.231422,-0.17251 -0.601839,-0.2593 -1.112661,-0.2593 h -0.89535 z m 0,0.59161 v 2.46345 h -0.688622 v -5.92385 h 1.624541 c 0.726723,0 1.264003,0.13935 1.610784,0.41769 0.34678,0.27799 0.520347,0.69638 0.520347,1.25554 0,0.78352 -0.396875,1.31304 -1.190978,1.58855 l 1.608314,2.66207 h -0.814211 l -1.434394,-2.46345 H 83.90435" />
      <path
         id="path1774"
         style="fill:#ffff00;fill-opacity:1;fill-rule:nonzero;stroke:none;stroke-width:0.0352778"
         d="m 89.852536,116.69166 1.580092,-2.96192 h 0.745419 l -1.976967,3.6262 v 2.29765 h -0.697088 v -2.26519 l -1.973086,-3.65866 h 0.753533 l 1.568097,2.96192" />
      <path
         id="path1776"
         style="fill:#ffff00;fill-opacity:1;fill-rule:nonzero;stroke:none;stroke-width:0.0352778"
         d="m 93.681586,116.73223 h 0.61983 c 0.610306,0 1.051984,-0.0984 1.325034,-0.29598 0.272697,-0.1972 0.409222,-0.51294 0.409222,-0.94826 0,-0.39159 -0.128058,-0.68298 -0.384881,-0.87489 -0.256822,-0.19191 -0.656519,-0.28752 -1.199091,-0.28752 h -0.770114 z m 3.06705,-1.27635 c 0,0.59973 -0.204611,1.06081 -0.613833,1.3836 -0.40887,0.32314 -0.994481,0.48436 -1.756128,0.48436 h -0.697089 v 2.32975 h -0.688975 v -5.92385 h 1.535642 c 1.480608,0 2.220383,0.57538 2.220383,1.72614" />
      <path
         id="path1778"
         style="fill:#ffff00;fill-opacity:1;fill-rule:nonzero;stroke:none;stroke-width:0.0352778"
         d="m 98.677272,116.59853 h 0.944386 c 0.486132,0 0.842782,-0.097 1.069622,-0.28963 0.22684,-0.19332 0.34008,-0.48295 0.34008,-0.86924 0,-0.39194 -0.11536,-0.67381 -0.34608,-0.84702 -0.23107,-0.17251 -0.60219,-0.2593 -1.112305,-0.2593 h -0.895703 z m 0,0.59161 v 2.46345 H 97.98865 v -5.92385 h 1.624541 c 0.726719,0 1.263649,0.13935 1.610779,0.41769 0.34714,0.27799 0.5207,0.69638 0.5207,1.25554 0,0.78352 -0.39722,1.31304 -1.19133,1.58855 l 1.60867,2.66207 h -0.81456 l -1.434398,-2.46345 h -1.23578" />
      <path
         id="path1780"
         style="fill:#ffff00;fill-opacity:1;fill-rule:nonzero;stroke:none;stroke-width:0.0352778"
         d="m 103.53961,116.68355 c 0,0.80222 0.1711,1.41076 0.51258,1.82527 0.34149,0.41487 0.83785,0.6223 1.48908,0.6223 0.65652,0 1.15217,-0.20673 1.48696,-0.62018 0.33514,-0.41346 0.50271,-1.0227 0.50271,-1.82739 0,-0.79693 -0.16722,-1.40123 -0.5006,-1.81328 -0.33337,-0.41169 -0.82726,-0.61771 -1.48096,-0.61771 -0.65652,0 -1.1557,0.20708 -1.49719,0.62195 -0.34148,0.41451 -0.51258,1.01776 -0.51258,1.80904 z m 4.72052,0 c 0,0.94827 -0.23954,1.69369 -0.71932,2.23661 -0.47942,0.54293 -1.14617,0.81456 -1.99954,0.81456 -0.87207,0 -1.54587,-0.26705 -2.01965,-0.80045 -0.47414,-0.5334 -0.7112,-1.28623 -0.7112,-2.25883 0,-0.9645 0.23777,-1.71203 0.71296,-2.24261 0.47554,-0.53093 1.15076,-0.79657 2.026,-0.79657 0.8509,0 1.51554,0.27058 1.99355,0.81033 0.47801,0.5408 0.7172,1.28622 0.7172,2.23696" />
      <path
         id="path1782"
         style="fill:#ffff00;fill-opacity:1;fill-rule:nonzero;stroke:none;stroke-width:0.0352778"
         d="m 112.1174,114.26067 c -0.65088,0 -1.16487,0.21661 -1.54164,0.65017 -0.37712,0.43357 -0.5655,1.02729 -0.5655,1.78082 0,0.77541 0.18203,1.37443 0.54539,1.7967 0.36301,0.42333 0.88124,0.6343 1.55364,0.6343 0.41345,0 0.88476,-0.0741 1.41393,-0.22296 v 0.6036 c -0.41063,0.15417 -0.91687,0.23142 -1.51906,0.23142 -0.87242,0 -1.54587,-0.26458 -2.02001,-0.7941 -0.47413,-0.52952 -0.7112,-1.28164 -0.7112,-2.25707 0,-0.61031 0.1143,-1.14547 0.34255,-1.60443 0.22789,-0.45897 0.55774,-0.8128 0.98884,-1.06151 0.43038,-0.24871 0.93803,-0.37289 1.52117,-0.37289 0.62124,0 1.16417,0.11324 1.62878,0.34043 l -0.29175,0.59126 c -0.44803,-0.21061 -0.89676,-0.31574 -1.34514,-0.31574" />
      <path
         id="path1784"
         style="fill:#ffff00;fill-opacity:1;fill-rule:nonzero;stroke:none;stroke-width:0.0352778"
         d="m 119.28902,113.72974 v 3.83293 c 0,0.67522 -0.20391,1.20615 -0.61172,1.59244 -0.40816,0.38665 -0.96837,0.57961 -1.68134,0.57961 -0.71367,0 -1.26506,-0.19438 -1.65523,-0.58384 -0.39053,-0.38876 -0.58596,-0.92357 -0.58596,-1.60444 v -3.8167 h 0.68897 v 3.86539 c 0,0.49424 0.13511,0.87418 0.40534,1.13876 0.27023,0.26459 0.66711,0.39723 1.19133,0.39723 0.49954,0 0.88477,-0.133 1.15464,-0.39934 0.27023,-0.266 0.40535,-0.6477 0.40535,-1.14441 v -3.85763 h 0.68862" />
      <path
         id="path1786"
         style="fill:#ffff00;fill-opacity:1;fill-rule:nonzero;stroke:none;stroke-width:0.0352778"
         d="m 121.54574,116.59853 h 0.94403 c 0.48648,0 0.84314,-0.097 1.06962,-0.28963 0.22719,-0.19332 0.34043,-0.48295 0.34043,-0.86924 0,-0.39194 -0.11535,-0.67381 -0.34607,-0.84702 -0.23142,-0.17251 -0.60184,-0.2593 -1.11266,-0.2593 h -0.89535 z m 0,0.59161 v 2.46345 h -0.68862 v -5.92385 h 1.62489 c 0.72637,0 1.26365,0.13935 1.61043,0.41769 0.34713,0.27799 0.5207,0.69638 0.5207,1.25554 0,0.78352 -0.39687,1.31304 -1.19133,1.58855 l 1.60831,2.66207 h -0.81385 l -1.43475,-2.46345 h -1.23578" />
      <path
         id="path1788"
         style="fill:#ffff00;fill-opacity:1;fill-rule:nonzero;stroke:none;stroke-width:0.0352778"
         d="m 126.67548,116.59853 h 0.94403 c 0.48648,0 0.84279,-0.097 1.06963,-0.28963 0.22718,-0.19332 0.34043,-0.48295 0.34043,-0.86924 0,-0.39194 -0.11536,-0.67381 -0.34643,-0.84702 -0.23072,-0.17251 -0.60149,-0.2593 -1.11231,-0.2593 h -0.89535 z m 0,0.59161 v 2.46345 h -0.68898 v -5.92385 h 1.62525 c 0.72637,0 1.2633,0.13935 1.61008,0.41769 0.34749,0.27799 0.52105,0.69638 0.52105,1.25554 0,0.78352 -0.39723,1.31304 -1.19133,1.58855 l 1.60832,2.66207 h -0.81422 l -1.43439,-2.46345 h -1.23578" />
      <path
         id="path1790"
         style="fill:#ffff00;fill-opacity:1;fill-rule:nonzero;stroke:none;stroke-width:0.0352778"
         d="m 134.4186,119.65359 h -3.30235 v -5.92385 h 3.30235 v 0.61172 h -2.61373 v 1.90853 h 2.45568 v 0.60783 h -2.45568 v 2.17982 h 2.61373 v 0.61595" />
      <path
         id="path1792"
         style="fill:#ffff00;fill-opacity:1;fill-rule:nonzero;stroke:none;stroke-width:0.0352778"
         d="m 140.35867,119.65359 h -0.78599 l -3.23744,-4.9717 h -0.0325 c 0.043,0.58349 0.0649,1.1183 0.0649,1.60443 v 3.36727 h -0.63641 v -5.92385 h 0.77787 l 3.22968,4.95124 h 0.0321 c -0.005,-0.0727 -0.0173,-0.30727 -0.0363,-0.70274 -0.019,-0.39581 -0.0258,-0.67874 -0.0205,-0.84878 v -3.39972 h 0.64452 v 5.92385" />
      <path
         id="path1794"
         style="fill:#ffff00;fill-opacity:1;fill-rule:nonzero;stroke:none;stroke-width:0.0352778"
         d="m 144.52392,114.26067 c -0.65123,0 -1.16487,0.21661 -1.54164,0.65017 -0.37677,0.43357 -0.5655,1.02729 -0.5655,1.78082 0,0.77541 0.18168,1.37443 0.54504,1.7967 0.36336,0.42333 0.88124,0.6343 1.55398,0.6343 0.41346,0 0.88442,-0.0741 1.41394,-0.22296 v 0.6036 c -0.41064,0.15417 -0.91687,0.23142 -1.51906,0.23142 -0.87278,0 -1.54623,-0.26458 -2.02036,-0.7941 -0.47378,-0.52952 -0.71085,-1.28164 -0.71085,-2.25707 0,-0.61031 0.1143,-1.14547 0.3422,-1.60443 0.2286,-0.45897 0.55774,-0.8128 0.98883,-1.06151 0.4311,-0.24871 0.93804,-0.37289 1.52153,-0.37289 0.62089,0 1.16417,0.11324 1.62878,0.34043 l -0.29175,0.59126 c -0.44838,-0.21061 -0.89676,-0.31574 -1.34514,-0.31574" />
      <path
         id="path1796"
         style="fill:#ffff00;fill-opacity:1;fill-rule:nonzero;stroke:none;stroke-width:0.0352778"
         d="m 148.72973,116.69166 1.5801,-2.96192 h 0.74577 l -1.97732,3.6262 v 2.29765 h -0.69674 v -2.26519 l -1.97344,-3.65866 h 0.75354 l 1.56809,2.96192" />
      <path
         id="path1798"
         style="fill:#ffff00;fill-opacity:1;fill-rule:nonzero;stroke:none;stroke-width:0.0352778"
         d="m 57.454344,136.41582 v -11.23985 h 1.306795 v 11.23985 h -1.306795" />
      <path
         id="path1800"
         style="fill:#ffff00;fill-opacity:1;fill-rule:nonzero;stroke:none;stroke-width:0.0352778"
         d="m 70.623678,136.41582 h -1.491544 l -6.142636,-9.43328 h -0.06159 c 0.08199,1.10702 0.123331,2.12196 0.123331,3.04448 v 6.3888 h -1.207135 v -11.23985 h 1.475846 l 6.127572,9.39482 h 0.06138 c -0.01023,-0.13829 -0.03316,-0.58279 -0.06914,-1.33385 -0.03598,-0.75071 -0.04868,-1.28764 -0.03845,-1.61043 v -6.45054 h 1.222375 v 11.23985" />
      <path
         id="path1802"
         style="fill:#ffff00;fill-opacity:1;fill-rule:nonzero;stroke:none;stroke-width:0.0352778"
         d="m 80.133861,125.17597 h 1.406878 l -4.0513,11.23985 h -1.291872 l -4.028369,-11.23985 h 1.383594 l 2.583392,7.27287 c 0.297038,0.83537 0.532694,1.64782 0.707319,2.43698 0.184503,-0.83043 0.42545,-1.6577 0.722489,-2.48285 l 2.567869,-7.227" />
      <path
         id="path1804"
         style="fill:#ffff00;fill-opacity:1;fill-rule:nonzero;stroke:none;stroke-width:0.0352778"
         d="m 89.351592,136.41582 h -6.265686 v -11.23985 h 6.265686 v 1.16064 h -4.958645 v 3.62126 h 4.658783 v 1.15358 h -4.658783 v 4.13597 h 4.958645 v 1.1684" />
      <path
         id="path1806"
         style="fill:#ffff00;fill-opacity:1;fill-rule:nonzero;stroke:none;stroke-width:0.0352778"
         d="m 98.185147,133.42532 c 0,0.98919 -0.358775,1.76037 -1.075972,2.31423 -0.717903,0.55315 -1.69157,0.83008 -2.921353,0.83008 -1.333147,0 -2.357967,-0.1718 -3.075517,-0.51505 v -1.26083 c 0.461081,0.19473 0.963437,0.34854 1.506714,0.46143 0.543278,0.11254 1.081617,0.16898 1.614311,0.16898 0.871361,0 1.527528,-0.16545 1.9685,-0.496 0.44062,-0.33056 0.661106,-0.79022 0.661106,-1.38007 0,-0.38947 -0.07832,-0.70838 -0.234597,-0.95673 -0.156281,-0.24871 -0.417689,-0.47837 -0.784225,-0.68827 -0.366184,-0.21026 -0.923925,-0.44874 -1.671814,-0.71508 -1.045633,-0.37395 -1.792817,-0.81739 -2.241197,-1.32997 -0.448381,-0.51224 -0.672748,-1.18146 -0.672748,-2.00696 0,-0.86571 0.325614,-1.55539 0.976137,-2.06763 0.650875,-0.51258 1.512005,-0.76905 2.583391,-0.76905 1.1176,0 2.145242,0.20531 3.082925,0.61524 l -0.407458,1.13771 c -0.927806,-0.38911 -1.829859,-0.5842 -2.706159,-0.5842 -0.691797,0 -1.232605,0.14887 -1.622072,0.44626 -0.389466,0.29704 -0.584552,0.70944 -0.584552,1.2372 0,0.38981 0.07161,0.70873 0.215194,0.95743 0.143581,0.24836 0.385586,0.47661 0.726722,0.68439 0.340783,0.20744 0.862189,0.43674 1.564217,0.68792 1.178983,0.42016 1.990019,0.87171 2.433461,1.35325 0.443442,0.48155 0.664986,1.10667 0.664986,1.87572" />
      <path
         id="path1808"
         style="fill:#ffff00;fill-opacity:1;fill-rule:nonzero;stroke:none;stroke-width:0.0352778"
         d="m 103.94354,136.41582 h -1.30704 v -10.07921 h -3.559531 v -1.16064 h 8.426101 v 1.16064 h -3.55953 v 10.07921" />
      <path
         id="path1810"
         style="fill:#ffff00;fill-opacity:1;fill-rule:nonzero;stroke:none;stroke-width:0.0352778"
         d="m 114.16845,136.41582 -3.81318,-9.9635 h -0.0617 c 0.072,0.78916 0.10795,1.7272 0.10795,2.81375 v 7.14975 h -1.20721 v -11.23985 h 1.9685 l 3.55953,9.27206 h 0.061 l 3.59057,-9.27206 h 1.95228 v 11.23985 h -1.30669 v -7.24217 c 0,-0.83009 0.036,-1.73214 0.10759,-2.70616 h -0.0614 l -3.84387,9.94833 h -1.05339" />
      <path
         id="path1812"
         style="fill:#ffff00;fill-opacity:1;fill-rule:nonzero;stroke:none;stroke-width:0.0352778"
         d="m 129.6748,136.41582 h -6.26534 v -11.23985 h 6.26534 v 1.16064 h -4.9583 v 3.62126 h 4.65879 v 1.15358 h -4.65879 v 4.13597 h 4.9583 v 1.1684" />
      <path
         id="path1814"
         style="fill:#ffff00;fill-opacity:1;fill-rule:nonzero;stroke:none;stroke-width:0.0352778"
         d="m 140.94569,136.41582 h -1.49154 l -6.14257,-9.43328 h -0.0617 c 0.0822,1.10702 0.12312,2.12196 0.12312,3.04448 v 6.3888 h -1.20721 v -11.23985 h 1.47602 l 6.12775,9.39482 h 0.0614 c -0.0106,-0.13829 -0.0332,-0.58279 -0.0695,-1.33385 -0.0356,-0.75071 -0.0487,-1.28764 -0.0381,-1.61043 v -6.45054 h 1.22237 v 11.23985" />
      <path
         id="path1816"
         style="fill:#ffff00;fill-opacity:1;fill-rule:nonzero;stroke:none;stroke-width:0.0352778"
         d="m 147.49572,136.41582 h -1.30669 v -10.07921 h -3.55988 v -1.16064 h 8.42645 v 1.16064 h -3.55988 v 10.07921" />
      <path
         id="path1818"
         style="fill:#ffffff;fill-opacity:1;fill-rule:nonzero;stroke:none;stroke-width:0.0352778"
         d="m 65.547559,104.28518 c 0,0.71649 -0.182034,1.3529 -0.545395,1.90852 -0.363714,0.55598 -0.888188,0.98813 -1.57307,1.29646 -0.684882,0.30833 -1.488122,0.46214 -2.41046,0.46214 -0.769337,0 -1.414568,-0.054 -1.93615,-0.16228 -0.522005,-0.10795 -1.064507,-0.29633 -1.62814,-0.5648 v -2.782 c 0.594889,0.3055 1.214473,0.54398 1.857164,0.71508 0.642584,0.17145 1.233099,0.25717 1.770521,0.25717 0.463444,0 0.80338,-0.0804 1.019351,-0.2413 0.216076,-0.16051 0.324238,-0.36759 0.324238,-0.62053 0,-0.15805 -0.04367,-0.29633 -0.130492,-0.41451 -0.08682,-0.11854 -0.226695,-0.23848 -0.418924,-0.35984 -0.192264,-0.12135 -0.705026,-0.369 -1.537229,-0.74295 -0.753498,-0.34255 -1.318507,-0.67451 -1.69538,-0.99589 -0.376907,-0.32138 -0.655955,-0.69039 -0.837847,-1.10631 -0.181645,-0.41628 -0.272591,-0.90911 -0.272591,-1.47814 0,-1.063978 0.387385,-1.894064 1.16212,-2.489553 0.774453,-0.595488 1.838713,-0.893233 3.192921,-0.893233 1.196129,0 2.41568,0.276578 3.659363,0.830086 l -0.956345,2.410531 c -1.080381,-0.4953 -2.013055,-0.743303 -2.797703,-0.743303 -0.406259,0 -0.701146,0.07161 -0.885543,0.213783 -0.18422,0.14217 -0.276542,0.318559 -0.276542,0.52952 0,0.226483 0.117122,0.429683 0.351648,0.608541 0.234421,0.178858 0.870656,0.505528 1.90874,0.980018 0.99589,0.44767 1.687405,0.92886 2.07472,1.44251 0.38735,0.51364 0.581025,1.16064 0.581025,1.94028" />
      <path
         id="path1820"
         style="fill:#ffffff;fill-opacity:1;fill-rule:nonzero;stroke:none;stroke-width:0.0352778"
         d="m 70.1947,102.00094 c 0,2.23414 0.77717,3.35103 2.331156,3.35103 0.790575,0 1.376891,-0.27163 1.75895,-0.81421 0.382058,-0.54257 0.573264,-1.38818 0.573264,-2.53682 0,-1.15394 -0.194028,-2.006248 -0.581378,-2.556934 -0.38735,-0.550334 -0.965553,-0.825853 -1.734608,-0.825853 -1.564923,0 -2.347384,1.127478 -2.347384,3.382787 z m 7.950906,0 c 0,1.94451 -0.476956,3.42194 -1.430514,4.43371 -0.953558,1.01177 -2.350206,1.51765 -4.189236,1.51765 -1.81222,0 -3.201811,-0.50835 -4.168775,-1.52541 -0.966964,-1.01671 -1.449917,-2.49731 -1.449917,-4.44183 0,-1.92299 0.480484,-3.391954 1.441803,-4.40619 0.961672,-1.014236 2.359378,-1.521531 4.193117,-1.521531 1.838677,0 3.232502,0.503414 4.180769,1.509889 0.948267,1.006122 1.422753,2.484262 1.422753,4.433712" />
      <path
         id="path1822"
         style="fill:#ffffff;fill-opacity:1;fill-rule:nonzero;stroke:none;stroke-width:0.0352778"
         d="M 80.231933,107.79426 V 96.239372 h 3.122084 v 9.033228 h 4.449586 v 2.52166 h -7.57167" />
      <path
         id="path1824"
         style="fill:#ffffff;fill-opacity:1;fill-rule:nonzero;stroke:none;stroke-width:0.0352778"
         d="m 99.477372,96.239372 v 6.955018 c 0,1.51235 -0.428272,2.68322 -1.284464,3.51331 -0.856544,0.82938 -2.090561,1.2446 -3.703108,1.2446 -1.575506,0 -2.785533,-0.40287 -3.631495,-1.20932 -0.845255,-0.8061 -1.268588,-1.96533 -1.268588,-3.47733 v -7.026278 h 3.137958 v 6.781448 c 0,0.81633 0.152753,1.40935 0.458611,1.778 0.305153,0.369 0.75565,0.55315 1.351139,0.55315 0.637469,0 1.099961,-0.18309 1.387122,-0.54927 0.287161,-0.36618 0.430742,-0.96555 0.430742,-1.79811 v -6.765218 h 3.122083" />
      <path
         id="path1826"
         style="fill:#ffffff;fill-opacity:1;fill-rule:nonzero;stroke:none;stroke-width:0.0352778"
         d="m 107.00106,107.79426 h -3.12173 v -9.002188 h -2.82151 v -2.5527 h 8.757 v 2.5527 h -2.81376 v 9.002188" />
      <path
         id="path1828"
         style="fill:#ffffff;fill-opacity:1;fill-rule:nonzero;stroke:none;stroke-width:0.0352778"
         d="M 111.46688,107.79426 V 96.239372 h 3.1376 v 11.554888 h -3.1376" />
      <path
         id="path1830"
         style="fill:#ffffff;fill-opacity:1;fill-rule:nonzero;stroke:none;stroke-width:0.0352778"
         d="m 119.96282,102.00094 c 0,2.23414 0.77753,3.35103 2.33151,3.35103 0.79058,0 1.37689,-0.27163 1.75895,-0.81421 0.38171,-0.54257 0.57291,-1.38818 0.57291,-2.53682 0,-1.15394 -0.19367,-2.006248 -0.58102,-2.556934 -0.387,-0.550334 -0.96555,-0.825853 -1.73496,-0.825853 -1.56457,0 -2.34739,1.127478 -2.34739,3.382787 z m 7.95091,0 c 0,1.94451 -0.4766,3.42194 -1.43051,4.43371 -0.95356,1.01177 -2.34986,1.51765 -4.18889,1.51765 -1.81222,0 -3.20216,-0.50835 -4.16877,-1.52541 -0.96697,-1.01671 -1.45027,-2.49731 -1.45027,-4.44183 0,-1.92299 0.48083,-3.391954 1.44251,-4.40619 0.96132,-1.014236 2.35902,-1.521531 4.19241,-1.521531 1.83903,0 3.2325,0.503414 4.18112,1.509889 0.94827,1.006122 1.4224,2.484262 1.4224,4.433712" />
      <path
         id="path1832"
         style="fill:#ffffff;fill-opacity:1;fill-rule:nonzero;stroke:none;stroke-width:0.0352778"
         d="m 141.00214,107.79426 h -4.09399 l -4.22063,-8.140704 h -0.0713 c 0.10019,1.280584 0.15028,2.257774 0.15028,2.932284 v 5.20842 h -2.76613 V 96.239372 h 4.07846 l 4.20441,8.029928 h 0.0473 c -0.0741,-1.16452 -0.11042,-2.09938 -0.11042,-2.80564 v -5.224288 h 2.78201 v 11.554888" />
      <path
         id="path1834"
         style="fill:#ffffff;fill-opacity:1;fill-rule:nonzero;stroke:none;stroke-width:0.0352778"
         d="m 151.0556,104.28518 c 0,0.71649 -0.18203,1.3529 -0.5454,1.90852 -0.36371,0.55598 -0.88794,0.98813 -1.57268,1.29646 -0.68545,0.30833 -1.48872,0.46214 -2.41053,0.46214 -0.76976,0 -1.41499,-0.054 -1.9364,-0.16228 -0.52176,-0.10795 -1.06468,-0.29633 -1.62842,-0.5648 v -2.782 c 0.59549,0.3055 1.21461,0.54398 1.85738,0.71508 0.64276,0.17145 1.23295,0.25717 1.77059,0.25717 0.46319,0 0.80327,-0.0804 1.01917,-0.2413 0.21626,-0.16051 0.32421,-0.36759 0.32421,-0.62053 0,-0.15805 -0.0434,-0.29633 -0.13053,-0.41451 -0.0868,-0.11854 -0.22649,-0.23848 -0.4184,-0.35984 -0.19261,-0.12135 -0.7052,-0.369 -1.5374,-0.74295 -0.75389,-0.34255 -1.31869,-0.67451 -1.69581,-0.99589 -0.37641,-0.32138 -0.65581,-0.69039 -0.83749,-1.10631 -0.18168,-0.41628 -0.27234,-0.90911 -0.27234,-1.47814 0,-1.063978 0.38735,-1.894064 1.16169,-2.489553 0.77435,-0.595488 1.83868,-0.893233 3.19299,-0.893233 1.19592,0 2.41547,0.276578 3.65937,0.830086 l -0.95638,2.410531 c -1.08021,-0.4953 -2.0126,-0.743303 -2.79788,-0.743303 -0.4057,0 -0.70062,0.07161 -0.88547,0.213783 -0.18415,0.14217 -0.27658,0.318559 -0.27658,0.52952 0,0.226483 0.11747,0.429683 0.35172,0.608541 0.23459,0.178858 0.87101,0.505528 1.90888,0.980018 0.99589,0.44767 1.68769,0.92886 2.07468,1.44251 0.38735,0.51364 0.58103,1.16064 0.58103,1.94028" />
      <text
         xml:space="preserve"
         style="font-style:normal;font-weight:normal;font-size:33.3118px;line-height:1.25;font-family:sans-serif;white-space:pre;inline-size:276.349;fill:#f9f9f9;fill-opacity:1;stroke:none;stroke-width:0.8328"
         x="122.62502"
         y="-157.95105"
         id="text15827"
         transform="matrix(0.32925139,0,0,0.32988412,15.498332,201.63141)"><tspan
           x="122.62502"
           y="-157.95105"><tspan
             style="font-style:normal;font-variant:normal;font-weight:normal;font-stretch:normal;font-size:17.7664px;font-family:Arial;-inkscape-font-specification:'Arial, Normal';font-variant-ligatures:normal;font-variant-caps:normal;font-variant-numeric:normal;font-variant-east-asian:normal;fill:#f9f9f9;stroke-width:0.8328">Modern payment system based</tspan><tspan
             style="font-style:normal;font-variant:normal;font-weight:normal;font-stretch:normal;font-size:17.7664px;font-family:Arial;-inkscape-font-specification:'Arial, Normal';font-variant-ligatures:normal;font-variant-caps:normal;font-variant-numeric:normal;font-variant-east-asian:normal;fill:#f9f9f9;stroke-width:0.8328"> on </tspan></tspan></text>
      <text
         xml:space="preserve"
         style="font-style:normal;font-weight:normal;font-size:33.3118px;line-height:1.25;font-family:sans-serif;white-space:pre;inline-size:246.819;fill:#f9f9f9;fill-opacity:1;stroke:none;stroke-width:0.8328"
         x="122.62502"
         y="-157.95105"
         id="text42433"
         transform="matrix(0.32925139,0,0,0.32988412,21.207513,210.51863)"><tspan
           x="122.62502"
           y="-157.95105"><tspan
             style="font-style:normal;font-variant:normal;font-weight:normal;font-stretch:normal;font-size:17.1268px;font-family:sans-serif;-inkscape-font-specification:'sans-serif, Normal';font-variant-ligatures:normal;font-variant-caps:normal;font-variant-numeric:normal;font-variant-east-asian:normal;fill:#f9f9f9">     Blockchain technology.</tspan></tspan></text>
    </g>
  </g>
</svg>
